# xmcd
#
# Track frame offsets:
# 150
# 26957
# 52600
# 73862
# 101072
# 120712
# 144590
# 171562
# 193077
# 218722
# 237727
# 259220
#
# Disc length: 3732 seconds
#
#
# Revision: 6
# Processed by: cddbd v1.5.1PL0 Copyright (c) Steve Scherf et al.
# Submitted via: FreeRIP 2.80 
#
DISCID=be0e920c
DTITLE=Miguel Bosé - Bajo el signo de caín
DYEAR=1993
DGENRE=Balada Pop
TTITLE0=Te Comería El Corazón
TTITLE1=Lo Que Hay Es Lo Que Vez
TTITLE2=Si Tu No Vuelves
TTITLE3=Nada Particular
TTITLE4=Mayo
TTITLE5=Bajo El Signo De Caín
TTITLE6=Wako-Shaman
TTITLE7=Imagínate Que Te Quiero
TTITLE8=Sara
TTITLE9=Sol Forastero
TTITLE10=La Americana
TTITLE11=Gota A Gota
EXTD=YEAR: 1993
EXTT0=
EXTT1=
EXTT2=
EXTT3=
EXTT4=
EXTT5=
EXTT6=
EXTT7=
EXTT8=
EXTT9=
EXTT10=
EXTT11=
PLAYORDER=
